<svg width="19" height="21" viewBox="0 0 19 21" fill="none" xmlns="http://www.w3.org/2000/svg">
<path fill-rule="evenodd" clip-rule="evenodd" d="M8.06007 11.5528C8.37402 11.4089 8.71259 11.334 9.05596 11.334C9.39933 11.334 9.7379 11.4089 10.0518 11.5528C10.3656 11.6967 10.6472 11.9059 10.8821 12.1659C11.1169 12.4258 11.3008 12.7316 11.4255 13.0648C11.5502 13.398 11.6139 13.7536 11.6139 14.1117H10.6147C10.6147 13.8715 10.5719 13.6346 10.4897 13.415C10.4075 13.1954 10.2882 12.999 10.1407 12.8358L10.5114 12.5008L10.1407 12.8358C9.99333 12.6726 9.82113 12.5463 9.63544 12.4611C9.44994 12.3761 9.2532 12.3332 9.05596 12.3332C8.85872 12.3332 8.66198 12.3761 8.47648 12.4611C8.29079 12.5463 8.11859 12.6726 7.9712 12.8358C7.82373 12.999 7.7044 13.1954 7.62222 13.415C7.54003 13.6346 7.49723 13.8715 7.49723 14.1117H6.49805C6.49805 13.7536 6.56173 13.398 6.68642 13.0648C6.81112 12.7316 6.99502 12.4258 7.22981 12.1659C7.46469 11.9059 7.74631 11.6967 8.06007 11.5528Z" fill="black"/>
<path d="M10.6699 9.47167C10.6699 8.56811 9.9348 7.83301 9.03124 7.83301C8.12768 7.83301 7.39258 8.56811 7.39258 9.47167C7.39258 10.3752 8.12768 11.1103 9.03124 11.1103C9.9348 11.1103 10.6699 10.3752 10.6699 9.47167ZM9.03124 10.0179C8.73005 10.0179 8.48502 9.77286 8.48502 9.47167C8.48502 9.17048 8.73005 8.92545 9.03124 8.92545C9.33243 8.92545 9.57746 9.17048 9.57746 9.47167C9.57746 9.77286 9.33243 10.0179 9.03124 10.0179Z" fill="black"/>
<path d="M17.2344 12.8695C17.1385 12.8135 17.0386 12.7696 16.9347 12.7296V7.72969C17.0386 7.69372 17.1385 7.64576 17.2344 7.58981C18.0937 7.09421 18.3895 5.99511 17.8939 5.13181C17.3983 4.27251 16.2992 3.97676 15.4359 4.47235C15.34 4.52831 15.252 4.59225 15.1681 4.6602L10.8357 2.13026C10.8556 2.02235 10.8676 1.91044 10.8676 1.79853C10.8676 0.807341 10.0603 0 9.06909 0C8.0779 0 7.27056 0.807341 7.27056 1.79853C7.27056 1.91044 7.28255 2.02235 7.30253 2.13026L2.96607 4.66419C2.88214 4.59225 2.79421 4.5323 2.69829 4.47635C1.83899 3.98075 0.739887 4.27651 0.240295 5.13581C-0.255301 5.99511 0.0404579 7.09421 0.899757 7.5938C0.995679 7.64976 1.0916 7.69372 1.19552 7.73369V12.7336C1.0916 12.7696 0.999675 12.8175 0.899757 12.8735C0.0404579 13.3691 -0.255301 14.4682 0.240295 15.3275C0.731894 16.1828 1.83499 16.4826 2.69829 15.987C2.79421 15.931 2.88214 15.8671 2.96607 15.7991L7.30253 18.337C7.28255 18.445 7.27056 18.5569 7.27056 18.6688C7.27056 19.66 8.0779 20.4673 9.06909 20.4673C10.0603 20.4673 10.8676 19.66 10.8676 18.6688C10.8676 18.5569 10.8556 18.445 10.8357 18.337L15.1721 15.7991C15.256 15.8711 15.344 15.931 15.4399 15.987C16.3032 16.4865 17.4023 16.1828 17.8979 15.3275C18.3935 14.4682 18.0977 13.3691 17.2344 12.8695ZM16.0354 5.5155C16.3232 5.34764 16.6909 5.44756 16.8547 5.73532C17.0186 6.02309 16.9227 6.38679 16.6349 6.55465C16.3472 6.71852 15.9834 6.6226 15.8156 6.33483C15.6517 6.04707 15.7516 5.68336 16.0354 5.5155ZM14.5686 5.70335C14.5286 5.92317 14.5246 6.14698 14.5686 6.36281L12.89 7.33402C12.1266 6.33083 10.9795 5.6354 9.6686 5.47154V3.49315C9.87643 3.41721 10.0683 3.3053 10.2361 3.16542L14.5686 5.70335ZM12.6662 10.2317C12.6662 10.3436 12.6622 10.4555 12.6502 10.5674C12.6502 10.5794 12.6502 10.5914 12.6462 10.6033C12.6462 10.6113 12.6422 10.6233 12.6422 10.6313C12.6382 10.6513 12.6382 10.6753 12.6342 10.6953V10.6993C12.4264 12.298 11.1674 13.5649 9.57668 13.7927C9.57268 13.7927 9.56868 13.7927 9.56469 13.7927C9.53671 13.7967 9.50873 13.8007 9.48075 13.8047C9.47276 13.8047 9.46876 13.8047 9.46077 13.8087C9.43679 13.8127 9.41281 13.8127 9.38483 13.8167C9.37684 13.8167 9.36885 13.8167 9.35686 13.8207C9.33288 13.8207 9.30889 13.8247 9.28891 13.8247C9.28092 13.8247 9.26893 13.8247 9.26093 13.8247C9.23695 13.8247 9.21297 13.8287 9.18899 13.8287C9.181 13.8287 9.16901 13.8287 9.16102 13.8287C9.12904 13.8287 9.09707 13.8287 9.0611 13.8287C9.02912 13.8287 8.99715 13.8287 8.96118 13.8287C8.95319 13.8287 8.94119 13.8287 8.9332 13.8287C8.90922 13.8287 8.88524 13.8287 8.86126 13.8247C8.85327 13.8247 8.84128 13.8247 8.83328 13.8247C8.8093 13.8247 8.78532 13.8207 8.76534 13.8207C8.75735 13.8207 8.74935 13.8207 8.73736 13.8167C8.71338 13.8127 8.6894 13.8127 8.66142 13.8087C8.65343 13.8087 8.64943 13.8087 8.64144 13.8047C8.61346 13.8007 8.58549 13.7967 8.55751 13.7927C8.55351 13.7927 8.54952 13.7927 8.54552 13.7927C6.95082 13.5689 5.69185 12.298 5.48801 10.6953C5.48402 10.6713 5.48402 10.6473 5.48002 10.6273C5.48002 10.6193 5.48002 10.6113 5.47602 10.6033C5.47602 10.5914 5.47203 10.5754 5.47203 10.5634C5.47203 10.5474 5.46803 10.5274 5.46803 10.5114C5.46004 10.4195 5.45604 10.3276 5.45604 10.2356C5.45604 10.0918 5.46403 9.95188 5.48002 9.81599C5.66787 8.2173 6.90286 6.93834 8.48157 6.68654C8.66942 6.65857 8.85726 6.64258 9.0531 6.64258C9.24894 6.64258 9.44079 6.65857 9.62863 6.68654C11.1954 6.93834 12.4264 8.20131 12.6222 9.78801C12.6542 9.9279 12.6662 10.0798 12.6662 10.2317ZM9.06909 1.19902C9.40082 1.19902 9.6686 1.4668 9.6686 1.79853C9.6686 2.13026 9.40082 2.39804 9.06909 2.39804C8.73736 2.39804 8.46958 2.13026 8.46958 1.79853C8.46958 1.4668 8.73736 1.19902 9.06909 1.19902ZM7.90204 3.16542C8.06591 3.3053 8.25775 3.41721 8.46958 3.49315V5.47154C7.15865 5.6354 6.01159 6.33083 5.24821 7.33402L3.56958 6.36281C3.60955 6.14698 3.60955 5.92317 3.56958 5.70335L7.90204 3.16542ZM1.27945 5.73532C1.44331 5.44756 1.81101 5.35163 2.09878 5.5155C2.38654 5.67937 2.48247 6.04707 2.3186 6.33483C2.15473 6.6226 1.78703 6.71852 1.49927 6.55465C1.2115 6.38679 1.11558 6.02309 1.27945 5.73532ZM2.09878 14.9478C1.81101 15.1117 1.44331 15.0157 1.27945 14.728C1.11558 14.4402 1.2115 14.0765 1.49927 13.9087C1.78703 13.7408 2.15473 13.8407 2.3186 14.1285C2.48247 14.4162 2.38654 14.7839 2.09878 14.9478ZM2.39454 12.7336V7.72969C2.60636 7.65376 2.8022 7.54584 2.97007 7.40196L4.6487 8.36917C4.40889 8.94071 4.273 9.56819 4.273 10.2277C4.273 10.8871 4.4049 11.5146 4.6487 12.0861L2.97007 13.0534C2.8022 12.9175 2.60636 12.8056 2.39454 12.7336ZM3.56558 14.76C3.60555 14.5401 3.60955 14.3163 3.56558 14.1005L5.24421 13.1293C6.00759 14.1325 7.15465 14.8279 8.46558 14.9918V16.9702C8.25775 17.0461 8.06591 17.158 7.89805 17.2979L3.56558 14.76ZM9.06909 19.2643C8.73736 19.2643 8.46958 18.9965 8.46958 18.6648C8.46958 18.333 8.73736 18.0653 9.06909 18.0653C9.40082 18.0653 9.6686 18.333 9.6686 18.6648C9.6686 18.9965 9.40082 19.2643 9.06909 19.2643ZM10.2321 17.2979C10.0683 17.158 9.87643 17.0461 9.66461 16.9702V14.9918C10.9755 14.8279 12.1226 14.1325 12.886 13.1293L14.5646 14.1005C14.5246 14.3163 14.5246 14.5401 14.5646 14.76L10.2321 17.2979ZM15.1681 13.0613L13.4895 12.0941C13.7293 11.5226 13.8652 10.8951 13.8652 10.2356C13.8652 9.57619 13.7333 8.9487 13.4895 8.37717L15.1681 7.40995C15.336 7.55384 15.5318 7.66175 15.7436 7.73769V12.7416C15.5318 12.8056 15.336 12.9175 15.1681 13.0613ZM16.8547 14.728C16.6909 15.0157 16.3232 15.1117 16.0354 14.9478C15.7476 14.7839 15.6517 14.4162 15.8156 14.1285C15.9795 13.8407 16.3472 13.7448 16.6349 13.9087C16.9227 14.0765 17.0226 14.4402 16.8547 14.728Z" fill="black"/>
</svg>
